<?xml version="1.0" standalone="no"?>
<!DOCTYPE svg PUBLIC "-//W3C//DTD SVG 20010904//EN"
 "http://www.w3.org/TR/2001/REC-SVG-20010904/DTD/svg10.dtd">
<svg version="1.0" xmlns="http://www.w3.org/2000/svg"
 width="1024.000000pt" height="1024.000000pt" viewBox="0 0 1024.000000 1024.000000"
 preserveAspectRatio="xMidYMid meet">
<metadata>
Created by potrace 1.11, written by Peter Selinger 2001-2013
</metadata>
<g transform="translate(0.000000,1024.000000) scale(0.100000,-0.100000)"
fill="#000000" stroke="none">
<path d="M4956 10224 c-145 -35 16 120 -2522 -2418 -2547 -2547 -2383 -2376
-2419 -2527 -60 -255 85 -513 340 -602 17 -6 164 -13 345 -16 l315 -6 5 -1870
5 -1870 28 -90 c112 -359 375 -614 732 -711 68 -18 161 -19 3295 -19 l3225 0
80 23 c103 30 250 100 329 156 84 60 204 186 261 274 62 97 102 186 134 302
l26 95 3 1858 2 1857 303 0 c291 0 304 1 368 24 158 55 272 172 319 325 25 79
27 215 4 292 -39 133 70 21 -2422 2511 -2215 2214 -2351 2348 -2412 2376 -114
53 -226 65 -344 36z m1652 -2737 l1522 -1522 0 -2433 0 -2432 -3050 0 -3050 0
0 2432 0 2433 1522 1522 c838 838 1525 1523 1528 1523 3 0 690 -685 1528
-1523z"/>
<path d="M4825 5659 c-221 -19 -488 -83 -700 -166 -215 -84 -472 -237 -655
-391 -116 -97 -311 -297 -404 -412 -86 -108 -244 -345 -290 -435 -89 -177 -59
-354 83 -495 177 -175 434 -195 669 -52 97 58 153 112 244 234 116 155 201
251 296 332 304 259 618 376 1007 377 263 0 465 -46 685 -156 218 -109 437
-300 602 -525 47 -64 115 -143 152 -177 71 -65 186 -131 273 -156 246 -73 503
34 606 250 26 56 32 83 35 153 5 108 -13 160 -101 307 -382 633 -931 1067
-1561 1234 -295 78 -623 105 -941 78z"/>
<path d="M4975 3633 c-253 -35 -471 -197 -585 -435 -50 -104 -70 -195 -70
-324 0 -348 235 -648 574 -734 107 -27 265 -27 370 0 261 67 473 274 548 537
32 113 32 298 -1 403 -75 243 -238 423 -457 506 -117 44 -265 63 -379 47z"/>
</g>
</svg>
